<svg width="100" height="72" viewBox="0 0 100 72" fill="none" xmlns="http://www.w3.org/2000/svg">
<path d="M23.3414 36.2819C23.275 36.1801 23.197 36.1147 23.1046 36.0861C23.0728 36.0781 23.0382 36.0729 23.0035 36.0729C22.784 36.0781 22.5932 36.1591 22.4431 36.3211C22.2871 36.4857 22.1658 36.645 22.082 36.8096C21.5996 37.4942 21.1404 38.1342 20.7011 38.7194C20.6607 38.7768 20.6174 38.8316 20.5771 38.8865C20.1841 39.4195 19.7885 39.9394 19.3897 40.454C18.7544 41.2613 18.1447 42.0163 17.5642 42.7165C16.7467 43.7012 15.9841 44.5816 15.2793 45.3497C14.4359 46.2719 13.6644 47.0636 12.9684 47.7192C12.6707 48.0014 12.3849 48.2574 12.1163 48.49C11.7002 48.8478 11.3075 49.1561 10.9464 49.42C10.8827 49.467 10.8193 49.5113 10.7556 49.5557C10.6458 49.6316 10.542 49.702 10.4379 49.7675C10.2992 49.8588 10.1664 49.9399 10.0364 50.0131C9.99296 50.0365 9.94988 50.0626 9.90648 50.0834C9.86895 50.1044 9.83419 50.1227 9.7996 50.141C9.62044 50.2323 9.44715 50.3134 9.28252 50.3761C8.8635 50.5486 8.49392 50.6373 8.17622 50.6399C8.11552 50.6399 8.05777 50.6348 8.00571 50.6218C7.87567 50.5955 7.77173 50.5355 7.69079 50.4389C7.53774 50.2586 7.47427 49.9555 7.4945 49.5296C7.52615 48.7825 7.66192 47.9596 7.8959 47.053C7.9566 46.8205 8.0173 46.5933 8.08371 46.3687C8.26858 45.7207 8.47368 45.112 8.7018 44.5399C8.92436 43.9677 9.07741 43.5864 9.16128 43.3956V43.3929C9.18723 43.3329 9.20746 43.2911 9.21888 43.2702C9.23063 43.2415 9.24205 43.2049 9.25935 43.158C9.36916 42.8627 9.62909 42.2122 10.0364 41.2013C10.1028 41.0339 10.1752 40.8537 10.253 40.6656C10.8597 39.1739 11.6483 37.3321 12.6218 35.1534C13.3556 33.5127 14.1642 31.7441 15.0569 29.8423C15.3369 29.2465 15.6259 28.6353 15.9206 28.0136C15.9379 27.9795 15.9524 27.9457 15.9695 27.9116C16.4636 26.8642 16.686 26.3416 16.9084 25.8399C17.1192 25.3646 17.3302 24.9099 17.775 24.0531C17.8357 23.9382 17.8992 23.8127 17.9685 23.6821C18.4106 22.8408 18.2632 21.8456 17.5872 21.1454C17.2522 20.8005 16.7986 20.636 16.3481 20.636C15.7271 20.636 15.1145 20.9468 14.8344 21.5269C14.2683 22.6946 13.8695 23.6116 13.5287 24.4136C13.2601 25.0432 13.0291 25.6075 12.7806 26.1718C12.6477 26.4775 12.509 26.7831 12.3588 27.1017C12.1277 27.5903 11.9025 28.0736 11.6772 28.5516C11.3941 29.163 11.1167 29.7665 10.8452 30.3621V30.3646C10.3658 31.4202 9.90648 32.4495 9.46739 33.463C8.57778 35.5008 7.81513 37.3922 7.16506 39.1295C6.96861 39.6546 6.78961 40.1535 6.62497 40.6291C6.30712 41.5564 6.04719 42.3873 5.84796 43.1163V43.1188C5.81614 43.2442 5.78154 43.367 5.7525 43.4871C5.41457 44.9736 5.22971 46.1963 5.19511 47.1393C5.1633 48.0849 5.28159 48.8766 5.55621 49.5191C5.97213 50.4807 6.57879 51.0893 7.38469 51.3401C8 51.536 8.56604 51.596 9.07447 51.5177C9.22769 51.4942 9.37487 51.4578 9.51634 51.4107C9.60886 51.3846 9.70121 51.3505 9.79666 51.3139C10.0971 51.2017 10.4148 51.0449 10.7499 50.8411C10.9031 50.7497 11.0591 50.6479 11.2208 50.5328C11.3161 50.4701 11.4173 50.3997 11.5153 50.3265C11.5674 50.2899 11.6194 50.2506 11.6713 50.2089C11.7581 50.1462 11.8446 50.0783 11.9312 50.0077C11.9977 49.9582 12.0642 49.9033 12.1306 49.8485C12.2607 49.7412 12.3935 49.6289 12.5293 49.5113C12.9509 49.143 13.3699 48.7615 13.7888 48.3672C14.5196 47.6723 15.2416 46.9355 15.9581 46.1597C16.9084 45.1276 17.7837 44.1246 18.5866 43.1501C18.7312 42.975 18.8756 42.8 19.0141 42.6275C19.797 41.6636 20.3892 40.9216 20.7907 40.3966C20.8601 40.3026 20.9265 40.2162 20.9844 40.1379C21.5996 39.3255 22.1021 38.6278 22.495 38.0402C22.8907 37.4549 23.1276 37.0969 23.2172 36.9796C23.3905 36.653 23.431 36.423 23.3414 36.2819Z" fill="#1A535C"/>
<path d="M30.1493 26.8717C29.9318 27.0573 29.6856 27.1091 29.4186 27.0313C28.8402 26.8345 27.7155 26.8048 26.0492 26.9422C24.625 27.0608 23.0364 27.2094 21.2717 27.3876C20.9722 27.4172 20.6643 27.4469 20.3523 27.4804C20.3482 27.4841 20.3482 27.4916 20.3441 27.4953L15.9566 28.0112V28.0075C15.8868 28.0149 15.817 28.0259 15.7514 28.0335L15.698 28.041C13.5267 28.3305 11.4951 28.5829 9.59466 28.7943C7.62063 29.0172 6.09793 29.1321 5.0308 29.1435H4.89945C3.07717 29.1619 1.66934 28.8129 0.684279 28.1003C0.327101 27.9035 0.109599 27.6029 0.0399259 27.2019C-0.03399 26.7974 -0.00527464 26.4782 0.126077 26.2331C0.257429 25.9918 0.413417 25.8806 0.589967 25.899C0.766353 25.9176 1.02498 25.9659 1.35735 26.0401C1.69381 26.1182 2.14139 26.2257 2.69535 26.3593C3.25355 26.4967 4.0211 26.5561 5.00208 26.5488C6.77916 26.5302 8.72464 26.4521 10.8343 26.311C12.8907 26.1701 14.9181 26.0141 16.9128 25.8397L17.0647 25.8248L21.5302 25.4166V25.4203C21.6575 25.4091 21.7807 25.398 21.9037 25.3831C23.2213 25.2643 24.4033 25.1643 25.4621 25.0788C26.6155 24.986 27.5472 24.9378 28.2614 24.9302C28.6144 24.9265 28.9508 25.0453 29.2669 25.2828C29.5789 25.5205 29.8497 25.7802 30.0756 26.0587C30.3464 26.4188 30.3709 26.6898 30.1493 26.8717Z" fill="#1A535C"/>
<path d="M31.1812 42.5779C30.7362 42.6197 30.3117 42.6511 29.9072 42.6746C29.5028 42.6955 29.0783 42.7087 28.6335 42.7138C27.7034 42.7217 26.8482 42.5283 26.0771 42.1312L26.074 42.0214C26.0683 41.5799 25.9325 41.0758 25.661 40.5062C25.3895 39.9369 25.0543 39.6546 24.65 39.6599H24.5286C24.6036 39.1818 24.829 38.5809 25.2046 37.8598C25.5802 37.1362 26.0366 36.4412 26.5767 35.7725C27.114 35.1038 27.7236 34.5369 28.4081 34.0692C29.0898 33.6041 29.7946 33.3665 30.5254 33.3585C31.1696 33.3534 31.7097 33.5964 32.1432 34.0875C32.5735 34.5813 32.7959 35.3439 32.8075 36.3734C32.8191 37.2955 32.6775 38.2909 32.3885 39.3619C32.0969 40.4331 31.6953 41.5069 31.1812 42.5779ZM28.9828 46.3921C28.5958 46.9564 28.206 47.471 27.813 47.9387C27.6455 48.1425 27.478 48.3358 27.3075 48.5213C26.747 49.1325 26.1954 49.6106 25.6553 49.9658C25.1123 50.3187 24.6384 50.4962 24.2341 50.5015C23.9508 50.5042 23.7575 50.3682 23.6534 50.0941C23.5465 49.8196 23.4946 49.5374 23.4887 49.2449C23.4859 48.8791 23.5523 48.4481 23.6881 47.9518C23.792 47.5624 23.9134 47.1654 24.0433 46.7553C24.0751 46.6508 24.1097 46.5437 24.1445 46.4364C24.1474 46.4287 24.1502 46.4181 24.1531 46.4104C24.3294 45.8774 24.5258 45.3628 24.7423 44.8664C24.959 44.3701 25.1671 43.9547 25.3663 43.6255L25.4848 43.4036C26.3802 43.798 27.4144 43.9887 28.5873 43.9782C28.9107 43.973 29.2342 43.9626 29.5578 43.9416C29.8812 43.9208 30.2049 43.892 30.5283 43.8529C30.2482 44.3778 29.9506 44.8872 29.6387 45.3863C29.4278 45.7287 29.2081 46.0629 28.9828 46.3921ZM39.98 40.8407C39.8037 40.7571 39.434 40.6629 38.8707 40.9164C38.2006 41.2142 37.1664 41.3892 36.2709 41.5616C36.1957 41.5774 36.1207 41.5905 36.0485 41.606C36.0167 41.6113 35.9849 41.6192 35.9562 41.6243C35.7309 41.6714 35.5199 41.7185 35.3321 41.7681C34.3413 42.0344 33.3246 42.2645 32.273 42.4578C32.666 41.4598 32.978 40.4905 33.2091 39.5501C33.4429 38.6096 33.5527 37.7528 33.544 36.9794C33.5238 35.3231 33.0328 34.0953 32.0708 33.296C31.1091 32.4939 29.9824 32.102 28.6883 32.1151C27.917 32.1203 27.1602 32.3214 26.4179 32.7132C25.6726 33.1053 25.0024 33.6147 24.4015 34.2442C24.286 34.3669 24.1734 34.4924 24.0663 34.6204C23.6881 35.0697 23.3673 35.5609 23.1046 36.0861C23.0584 36.1801 23.0123 36.2741 22.9689 36.3707C22.7233 36.9245 22.5642 37.481 22.495 38.0402C22.463 38.2804 22.4488 38.5233 22.4518 38.7663C22.4604 39.4195 22.5875 40.0622 22.8388 40.689C22.8936 40.8354 22.9573 40.9765 23.0265 41.1202C22.472 41.9692 21.9663 43.0639 21.5186 44.4041C21.4724 44.5452 21.4263 44.6861 21.3859 44.8247C21.1518 45.5901 20.9987 46.3294 20.9237 47.0375C20.8803 47.4241 20.8601 47.8028 20.8659 48.1711C20.8775 49.1247 21.0797 49.9633 21.4724 50.6922C21.8653 51.4212 22.5905 51.779 23.6419 51.7685C24.3698 51.7632 25.1065 51.536 25.8488 51.0893C26.594 50.6426 27.3162 50.0392 28.0154 49.2815C28.307 48.968 28.593 48.6336 28.8732 48.2835C29.2631 47.7924 29.6474 47.2672 30.017 46.7082C30.3753 46.1674 30.7103 45.6084 31.0166 45.031C31.2533 44.5896 31.4759 44.1349 31.681 43.6726C32.5908 43.5157 33.4749 43.3146 34.324 43.069C34.3934 43.0482 34.4625 43.0273 34.532 43.0063C34.6216 42.9803 34.711 42.9542 34.7977 42.9253C34.9914 42.8652 35.1819 42.8025 35.3725 42.7373C35.5026 42.6929 35.647 42.6458 35.8002 42.5962C35.9242 42.5596 36.0543 42.5179 36.19 42.4761C36.9613 42.241 37.8884 41.9772 38.6483 41.7158C39.0644 41.5722 39.4312 41.4285 39.6939 41.2899L40.1043 40.9164C40.1043 40.9164 40.0638 40.8798 39.98 40.8407Z" fill="#1A535C"/>
<path d="M68.7507 3.85632C68.5196 3.33644 68.147 2.84518 67.6327 2.38535C67.1156 1.92833 66.5321 1.51292 65.8823 1.14725C65.2324 0.778914 64.5853 0.494106 63.9382 0.295478C63.2912 0.0943407 62.6991 -0.00497339 62.1674 0.000191536C60.3881 0.0159814 58.4584 0.428732 56.3787 1.23343C54.2989 2.03798 52.2219 3.11435 50.1479 4.46224C48.0738 5.81029 46.1009 7.36744 44.2349 9.13591C43.5473 9.78389 42.8974 10.4475 42.2793 11.1268C41.8662 11.5813 41.4676 12.0436 41.0862 12.5113C40.4825 13.2454 39.9222 13.9979 39.3992 14.7632C38.9053 15.4868 38.4577 16.213 38.0532 16.9445C37.9232 17.1773 37.802 17.407 37.6863 17.6369C37.6344 17.7362 37.5823 17.8381 37.5334 17.9374C37.4668 18.068 37.4033 18.1986 37.3426 18.3292C36.9527 19.1548 36.6175 19.9882 36.3375 20.8268C35.6499 22.8854 35.4535 24.8759 35.7423 26.8041C35.9792 28.1285 36.4269 29.2911 37.0856 30.2891C37.7413 31.2896 38.5992 32.2457 39.6564 33.16C40.7106 34.0744 41.9442 35.0175 43.3567 35.9894C44.7693 36.9613 46.3522 38.1212 48.1027 39.4719C48.64 39.8688 49.0127 40.347 49.2207 40.9086C49.4286 41.4704 49.5355 42.0608 49.5412 42.685C49.5499 43.3069 49.4459 43.9313 49.2322 44.5581C49.0386 45.1146 48.8105 45.632 48.5447 46.1126C48.5158 46.17 48.484 46.2276 48.4524 46.2851C47.9728 47.0922 47.3691 47.7533 46.641 48.2627C45.9131 48.7721 45.1852 49.1717 44.4546 49.4619C43.7236 49.7492 43.0361 49.9373 42.3949 50.0235C41.7507 50.1097 41.2941 50.1568 41.0286 50.1593C40.6703 50.1619 40.2485 50.107 39.7575 49.9896C39.2664 49.8746 38.7754 49.7284 38.2843 49.5532C37.7932 49.3755 37.3369 49.1797 36.9122 48.9628C36.8371 48.9235 36.765 48.8869 36.6984 48.8452C36.58 48.7773 36.4733 48.7069 36.3749 48.6337C36.2018 48.5031 36.0542 48.3645 35.9359 48.2183C35.9071 48.192 35.8955 48.0902 35.9012 47.9127C35.9012 47.8107 35.9128 47.6801 35.9271 47.5261C35.9619 47.1471 36.0831 46.6795 36.2941 46.1256C36.32 46.0579 36.346 45.9899 36.3749 45.922C36.6175 45.3079 37.0018 44.6235 37.5275 43.8632C37.5564 43.8215 37.5853 43.7797 37.6142 43.738C37.6633 43.6674 37.7181 43.5942 37.7729 43.521C38.3248 42.7792 39.0613 42.0189 39.9857 41.2403C40.4711 40.7938 40.6558 40.5795 40.5462 40.6003C40.4536 40.6186 40.266 40.6997 39.98 40.8407C39.9193 40.8694 39.8527 40.9034 39.7835 40.94C39.4629 41.1177 39.0845 41.3761 38.6483 41.7158C38.4837 41.8438 38.3102 41.9823 38.1283 42.1339C37.568 42.5989 37.0393 43.1109 36.5425 43.6648C36.4558 43.7614 36.3692 43.8607 36.2825 43.9626C36.1929 44.0645 36.1091 44.169 36.0254 44.2735C36.0051 44.2996 35.9849 44.3232 35.9647 44.3492C35.5401 44.8899 35.1878 45.4282 34.9075 45.9663C34.8641 46.0526 34.8209 46.1363 34.7863 46.2173C34.6562 46.5046 34.5753 46.7711 34.5464 47.0112C34.5175 47.2359 34.535 47.4424 34.5926 47.6279C34.7774 48.2286 35.0951 48.7696 35.546 49.2476C35.6874 49.3992 35.8376 49.5454 35.9908 49.6838C36.1641 49.8457 36.3432 49.9974 36.5309 50.141C36.7014 50.2769 36.8805 50.4075 37.0625 50.5303C37.0856 50.5461 37.1116 50.5617 37.1346 50.5773C37.3022 50.6896 37.4697 50.7941 37.643 50.8934C38.0214 51.1207 38.4114 51.3245 38.81 51.5073C39.4138 51.7817 39.9827 52.0167 40.52 52.2154C41.3666 52.5288 42.2591 52.6699 43.1921 52.6413C44.1251 52.6098 45.0349 52.4504 45.9219 52.1605C46.1009 52.1004 46.2799 52.0377 46.4562 51.9645C47.1467 51.6928 47.808 51.3376 48.4406 50.8986C49.2349 50.3499 49.9168 49.6682 50.483 48.8583C51.2485 47.7716 51.754 46.737 51.9966 45.7573C52.1728 45.0572 52.2133 44.3858 52.1239 43.7431C51.9042 42.1992 51.0088 40.671 49.4316 39.1556C47.9467 37.6848 46.4418 36.4309 44.9194 35.4016C43.3944 34.3697 42.0685 33.3483 40.9448 32.332C39.821 31.3184 38.9862 30.2002 38.4375 28.9801C37.8884 27.7602 37.8251 26.2215 38.2468 24.3665C38.6713 22.5535 39.4483 20.7458 40.5837 18.9431C40.7137 18.7368 40.8465 18.533 40.9794 18.3292C41.2884 17.8615 41.609 17.4019 41.9442 16.9445C42.7416 15.8605 43.611 14.8024 44.5556 13.7758C44.9514 13.3447 45.3556 12.924 45.7687 12.5113C46.2396 12.0385 46.7192 11.5761 47.2102 11.1268C47.9296 10.4631 48.6717 9.82048 49.4373 9.20394C51.1763 7.801 52.895 6.56806 54.5964 5.50467C56.295 4.44144 57.8953 3.59247 59.4001 2.95231C60.9052 2.31496 62.1444 1.97009 63.1236 1.92051C64.412 1.82385 65.4489 1.99621 66.2317 2.42992C67.0146 2.86613 67.5201 3.42513 67.7513 4.10704C68.4849 5.99062 68.7536 7.88718 68.5542 9.79953C68.5081 10.2437 68.4474 10.6851 68.3723 11.1268C68.2915 11.5918 68.1989 12.0514 68.0863 12.5113C67.8495 13.4936 67.5403 14.4629 67.1562 15.4243C66.9511 15.9389 66.7315 16.4458 66.4947 16.9445C66.4138 17.1197 66.3299 17.2921 66.2434 17.4646C66.1625 17.6291 66.0786 17.7963 65.9921 17.9608C65.9863 17.9713 65.9833 17.9791 65.9776 17.987C65.9197 18.1019 65.8592 18.2169 65.7957 18.3292C65.3652 19.1286 64.8943 19.9073 64.383 20.6701C63.271 22.3289 62.1444 23.8571 61.0034 25.2574C59.8653 26.655 58.8109 27.883 57.8461 28.9384C56.8814 29.9938 56.2024 30.8063 55.8095 31.3706C55.5033 31.7782 55.5498 32.0785 55.9539 32.2745C56.4017 32.5515 56.7339 32.5096 56.9535 32.1439C57.2568 31.6188 57.8808 30.8194 58.8254 29.7431C59.7671 28.6694 60.8185 27.3814 61.9798 25.8818C63.1381 24.3823 64.2994 22.7416 65.4548 20.9599C66.0122 20.1031 66.5264 19.2252 66.9943 18.3292C67.0464 18.2299 67.0984 18.1306 67.1476 18.0315C67.2283 17.8798 67.3035 17.7284 67.3786 17.5742C67.4827 17.3653 67.5808 17.1563 67.679 16.9445C67.9187 16.43 68.144 15.9102 68.3548 15.3824C68.7362 14.4263 69.0454 13.4727 69.2764 12.5113C69.389 12.0514 69.4815 11.5891 69.5566 11.1268C69.6462 10.6016 69.7096 10.0739 69.7531 9.5463C69.9061 7.5947 69.5739 5.69799 68.7507 3.85632Z" fill="#1A535C"/>
<path d="M75.6169 34.3148C75.5475 34.0534 75.3772 33.8549 75.1086 33.7165C74.8398 33.5781 74.551 33.5701 74.2418 33.6931C74.1092 33.7348 73.8086 33.8706 73.3465 34.0953C72.8813 34.3199 72.3181 34.5864 71.6538 34.8947C70.9921 35.203 70.2961 35.5532 69.5652 35.9423C68.8373 36.3316 68.1527 36.679 67.5114 36.9872C66.8701 37.2955 66.3387 37.562 65.9197 37.7893C65.498 38.0139 65.2668 38.1473 65.2238 38.1864C65.0475 38.3092 64.7845 38.5339 64.4321 38.8578C64.6922 38.2935 64.9723 37.677 65.2757 37.0109C65.5788 36.3419 65.9053 35.647 66.2519 34.9183C67.4218 32.2928 68.4069 30.1715 69.2098 28.5543C69.2098 28.5543 71.1135 24.8447 70.6744 22.6215C70.2383 20.3982 69.7501 20.0091 67.9794 23.3791C66.1191 26.9242 64.6633 30.3204 63.2333 33.4109C61.8006 36.5013 60.6018 39.1974 59.6283 41.499C59.2875 42.3089 58.9842 43.0377 58.7242 43.6829C58.2476 44.8691 57.9124 45.7782 57.7191 46.4053C57.589 46.7292 57.4706 47.1602 57.3694 47.7062C57.2655 48.2496 57.2048 48.7929 57.1875 49.3364C57.1731 49.8798 57.2337 50.3709 57.3724 50.8124C57.5109 51.2538 57.7594 51.5543 58.1176 51.7111C58.34 51.8287 58.5191 51.766 58.6492 51.523C58.8195 51.0397 59.013 50.5642 59.2327 50.0992C59.4462 49.6367 59.7093 49.0804 60.0124 48.4324C60.3159 47.7871 60.6828 47.0087 61.1187 46.0995C61.4568 45.3863 61.8643 44.5189 62.335 43.4949C62.4678 43.2128 62.6036 42.9201 62.7423 42.6145C62.7452 42.8339 62.8057 43.1552 62.9244 43.5837C63.0022 43.8659 63.1034 44.1976 63.2333 44.5713C63.5539 45.5144 64.1 46.4836 64.8684 47.4816C65.4316 48.213 66.1248 48.8791 66.9511 49.4774C67.2513 49.6943 67.5693 49.9032 67.9041 50.1044C69.155 50.8568 70.7409 51.2042 72.6532 51.1442C72.6503 51.0239 72.6273 50.943 72.5811 50.9038C70.8823 50.1568 69.5045 49.3468 68.4503 48.4717C68.4069 48.4351 68.3607 48.3985 68.3175 48.3594C67.3265 47.5259 66.5466 46.7264 65.9863 45.9611C65.3969 45.1642 64.9983 44.4537 64.7932 43.832C64.7528 43.7065 64.7152 43.5891 64.6835 43.4766C64.565 43.0352 64.5389 42.7007 64.6083 42.4761C64.6922 42.1129 65.0446 41.7289 65.6627 41.3187C66.2808 40.9111 67.0522 40.4618 67.9794 39.9681C68.9096 39.4769 69.935 38.9335 71.0615 38.3405C72.188 37.7475 73.2829 37.1023 74.3402 36.4074C74.9149 36.0391 75.2876 35.6653 75.4609 35.2813C75.6342 34.8974 75.6862 34.5761 75.6169 34.3148Z" fill="#1A535C"/>
<path d="M84.3176 60.0553C84.1789 60.2564 84.0404 60.4577 83.8989 60.6535C83.7197 60.9069 83.5378 61.1551 83.3528 61.4007C83.2834 61.4973 83.2113 61.5941 83.1333 61.6907C83.0207 61.8449 82.9021 61.9963 82.7838 62.1453C82.5757 62.4065 82.3679 62.6652 82.1569 62.9184C82.1482 62.9291 82.1396 62.9394 82.1309 62.9499C81.3596 63.872 80.5565 64.7394 79.716 65.5518C79.0748 66.171 78.4131 66.7431 77.7286 67.2708C77.665 67.3204 77.6015 67.3702 77.5351 67.4172C77.4658 67.4721 77.3964 67.5242 77.3271 67.5739C76.7379 68.0077 76.1341 68.4074 75.5131 68.7729C75.2705 68.9167 75.0249 69.0551 74.7764 69.1885C74.606 69.2798 74.4328 69.3713 74.2593 69.4575C74.0514 69.562 73.8406 69.6613 73.6296 69.7553C73.0347 70.0165 72.4281 70.2386 71.81 70.4163C70.767 70.7194 69.6925 70.8971 68.5862 70.9492C68.4908 70.9571 68.3925 70.9598 68.2973 70.9623C68.1904 70.9675 68.0806 70.9701 67.9737 70.9701C67.8784 70.9701 67.786 70.9701 67.6935 70.9675C67.1417 70.9623 66.6363 70.9179 66.18 70.8344C66.1597 70.8315 66.1366 70.829 66.1163 70.8212C65.5097 70.7088 64.9869 70.5259 64.5478 70.2752C64.4553 70.2256 64.3717 70.1732 64.2878 70.1158C64.1696 70.0348 64.0625 69.9513 63.9586 69.8598C63.7535 69.677 63.5888 69.4653 63.4676 69.2303C63.2999 68.9037 63.2132 68.5274 63.2075 68.1017C63.2046 67.7255 63.2623 67.3101 63.381 66.8556C63.3894 66.8242 63.3982 66.7927 63.4069 66.7614C63.4154 66.7327 63.4242 66.704 63.4328 66.6727C63.4761 66.5237 63.5252 66.3696 63.5831 66.2129C63.6379 66.0534 63.6957 65.8967 63.7621 65.7426C63.7708 65.714 63.7823 65.6851 63.7967 65.6564C63.8199 65.5911 63.8489 65.5283 63.8776 65.4656C64.2128 64.695 64.6432 63.961 65.1717 63.2633C65.2065 63.2112 65.2468 63.1615 65.2873 63.1119C65.3857 62.984 65.4867 62.8584 65.5935 62.7331C65.6281 62.6887 65.6657 62.6469 65.7033 62.605C65.9315 62.3411 66.1743 62.0825 66.4312 61.8317C67.7717 60.5178 69.3574 59.3526 71.1917 58.3337C73.023 57.3149 75.0479 56.4527 77.2636 55.7474C77.9394 55.5305 78.6213 55.3319 79.303 55.1517C79.4388 55.1126 79.5746 55.076 79.7103 55.0446C79.8431 55.0081 79.9789 54.974 80.1147 54.9401C81.1979 54.6684 82.2897 54.4412 83.3846 54.2557C83.581 54.2191 83.7803 54.1876 83.9797 54.1564C84.1414 54.1276 84.3003 54.099 84.4622 54.0728C85.6752 53.8742 86.8942 53.7566 88.1103 53.7148C87.6539 54.5979 87.1745 55.4678 86.6689 56.3299C86.458 56.6956 86.2384 57.0614 86.0132 57.4246C85.8659 57.6726 85.7129 57.9183 85.5539 58.1639C85.1581 58.8014 84.7451 59.4309 84.3176 60.0553ZM99.9914 54.8983V54.8957C99.9625 54.7912 99.8584 54.6762 99.6735 54.5535C99.6476 54.5352 99.6216 54.5195 99.5927 54.5012C99.4713 54.4307 99.3472 54.3602 99.2171 54.2949C98.3939 53.8742 97.4118 53.5529 96.2765 53.3334C95.1818 53.1219 94.035 52.9808 92.8333 52.9103C92.7987 52.9076 92.7641 52.905 92.7293 52.905C92.5213 52.892 92.3134 52.884 92.1024 52.8763C92.1342 52.8085 92.1661 52.7431 92.1979 52.6751C92.3508 52.3591 92.4983 52.0404 92.6427 51.7243C92.6543 51.698 92.6688 51.6694 92.6802 51.6406C92.8014 51.3741 92.9228 51.1076 93.0384 50.8412C93.0586 50.7941 93.0788 50.7472 93.0991 50.7026C93.2694 50.3134 93.434 49.9267 93.593 49.5376C93.6826 49.3208 93.7692 49.1039 93.8558 48.887C93.8992 48.7773 93.9425 48.665 93.9859 48.5552C94.0552 48.3775 94.1246 48.2 94.188 48.0223C94.4163 47.4268 94.6271 46.8415 94.8264 46.2642C94.9767 45.8305 95.1181 45.4048 95.2511 44.9815C95.3146 44.7829 95.3754 44.5844 95.436 44.3885C95.8403 43.0509 96.1928 41.7734 96.4904 40.5534C96.5106 40.4672 96.5309 40.3809 96.5511 40.2947C96.6549 39.8559 96.7501 39.4326 96.837 39.025L96.889 38.79C97.0016 38.2413 97.0998 37.7163 97.1837 37.2198C97.2672 36.9508 97.221 36.7182 97.0419 36.5198C96.6346 35.9921 96.2621 35.6028 95.927 35.3572C95.8605 35.3101 95.7971 35.2659 95.7364 35.2266C95.4792 35.0568 95.2511 34.9523 95.0546 34.913C94.8091 34.8661 94.6098 34.8764 94.4539 34.9445C94.2979 35.0149 94.1996 35.0804 94.1562 35.1483C94.0697 35.3494 94.0293 35.5662 94.0321 35.7987C93.9888 35.8535 93.9368 35.9189 93.8847 35.9816C93.879 35.9894 93.8733 35.9974 93.8674 36.005C93.8674 36.0756 93.8588 36.1488 93.8558 36.2218C93.5497 36.6791 93.1222 37.2616 92.556 37.9879C91.9523 38.7639 91.2735 39.592 90.5138 40.4802C90.4185 40.59 90.3201 40.7048 90.2221 40.8173C89.3439 41.8308 88.4138 42.8549 87.4258 43.8922C86.7584 44.5896 86.1115 45.2427 85.4818 45.8487C85.1812 46.1414 84.8838 46.4236 84.5891 46.6926C83.6879 47.5286 82.8647 48.2104 82.1135 48.7382C81.6919 49.0387 81.328 49.2528 81.016 49.386C80.7732 49.488 80.5624 49.5401 80.3891 49.5401C80.4669 48.6545 80.7761 47.5469 81.3162 46.2118C81.6225 45.4569 81.9404 44.6916 82.2724 43.9208C82.518 43.3355 82.7722 42.7478 83.0351 42.1547C83.2604 41.6428 83.4771 41.1438 83.6793 40.6579C84.0258 39.8402 84.3378 39.0563 84.6239 38.3093C85.0745 37.1179 85.2535 36.201 85.1553 35.5583C85.0628 35.1978 84.904 34.8661 84.6787 34.5682C84.4504 34.2679 84.2136 34.0092 83.9681 33.7897C83.7197 33.573 83.4742 33.4031 83.2286 33.2856C82.9803 33.1654 82.8357 33.087 82.7924 33.0478C82.5671 32.9694 82.3909 32.9825 82.2581 33.0844C82.1251 33.1863 82.0846 33.4161 82.1337 33.7793C82.1828 34.3409 82.0154 35.0855 81.6255 36.0155C81.2384 36.9455 80.7935 37.9748 80.2966 39.1061C80.0194 39.7409 79.739 40.3914 79.4618 41.0653C79.2424 41.5905 79.0227 42.1287 78.8062 42.6799C78.572 43.2703 78.3758 43.8607 78.2139 44.4512C78.0349 45.112 77.9048 45.7704 77.8182 46.4287C77.7343 47.0741 77.7748 47.7063 77.9394 48.328C78.1042 48.9498 78.3758 49.4802 78.7599 49.9191C79.1412 50.3579 79.6033 50.6557 80.1378 50.8099C80.3919 50.883 80.652 50.9013 80.9235 50.8647C81.2268 50.8282 81.5416 50.7237 81.8681 50.5512C82.3995 50.2664 83.0379 49.7858 83.7861 49.1144C84.5343 48.4431 85.3258 47.6826 86.1606 46.8284C86.6979 46.2799 87.2264 45.7077 87.7551 45.1095C88.0468 44.7777 88.3386 44.438 88.6274 44.0905C89.4392 43.1163 90.2046 42.194 90.9296 41.3214C91.1608 41.0445 91.3802 40.7755 91.5884 40.5168C92.0389 39.963 92.4433 39.4509 92.8014 38.9806C93.0268 38.688 93.2205 38.4398 93.3967 38.2204C93.5468 37.92 93.7346 37.6404 93.9425 37.3714C93.8501 38.0324 93.6884 38.8474 93.4456 39.8324C93.3908 40.0597 93.3301 40.2896 93.2666 40.5273C93.102 41.1515 92.9113 41.8151 92.6947 42.5179C92.5906 42.8679 92.4751 43.2259 92.3568 43.5942C91.9089 44.984 91.3572 46.4732 90.7103 48.0616C90.2278 49.245 89.6991 50.4416 89.1185 51.6536C88.9221 52.0612 88.7227 52.4688 88.5148 52.8789C88.5119 52.8893 88.5062 52.8998 88.5004 52.9103C87.6569 52.952 86.8451 53.0174 86.0682 53.1088C85.2911 53.2003 84.5718 53.2996 83.9046 53.4066C82.8675 53.5764 81.8248 53.7802 80.7761 54.0179C80.4669 54.0885 80.1581 54.1617 79.8461 54.2374C79.7854 54.2532 79.7276 54.2661 79.6669 54.2818C78.887 54.4751 78.1042 54.6894 77.3184 54.9218C75.1058 55.5774 73.0347 56.4317 71.1137 57.4846C69.1927 58.5375 67.4739 59.7783 65.9546 61.2127L65.6945 61.4634C65.1774 61.9755 64.7038 62.5188 64.2763 63.0909C64.1521 63.2608 64.0277 63.4333 63.9095 63.6082C63.4676 64.2587 63.0833 64.9459 62.754 65.6694C62.7164 65.7529 62.6761 65.8393 62.6413 65.9255C62.6297 65.9516 62.6183 65.9777 62.6065 66.004C62.5749 66.077 62.5432 66.1502 62.5142 66.2232C62.3004 66.7223 62.1706 67.19 62.1272 67.6184C62.1128 67.7621 62.1069 67.9032 62.1128 68.0363C62.1185 68.2036 62.1387 68.3629 62.1733 68.5144C62.2138 68.6947 62.2717 68.8644 62.3495 69.0265C62.5517 69.4497 62.8262 69.8232 63.1758 70.1473C63.3028 70.2725 63.4474 70.3902 63.6004 70.4998C63.768 70.6201 63.947 70.7325 64.1376 70.8344C64.181 70.8578 64.2271 70.8813 64.2705 70.8996C64.3658 70.9518 64.4613 70.9962 64.5594 71.0406C64.6316 71.0746 64.7008 71.106 64.7761 71.1373C65.449 71.4195 66.1945 71.6232 67.0177 71.7538C67.0986 71.7668 67.1794 71.7775 67.2574 71.7903C67.5924 71.84 67.9218 71.8793 68.2483 71.9106C68.9096 71.9759 69.5568 72.0047 70.1894 71.9994C70.2615 71.9969 70.3338 71.9969 70.4059 71.9916C71.2033 71.9655 71.9803 71.8819 72.7428 71.746C73.4043 71.6311 74.0544 71.4717 74.6898 71.2732C75.4929 71.025 76.2758 70.7088 77.0383 70.3301C78.2139 69.7448 79.3404 69.0657 80.418 68.2871C81.0679 67.8195 81.7005 67.3127 82.3157 66.7692C82.5209 66.5917 82.726 66.4089 82.9253 66.2206C83.0005 66.1527 83.0726 66.0823 83.1449 66.0116C83.24 65.9229 83.3327 65.834 83.4221 65.7426C83.9797 65.1991 84.5227 64.6323 85.0455 64.0392C85.6087 63.407 86.1518 62.7461 86.6805 62.0565C87.082 61.5286 87.4777 60.9826 87.859 60.4211C88.0439 60.1494 88.226 59.8776 88.405 59.6033C89.1156 58.5192 89.7828 57.4168 90.4068 56.2986C90.5628 56.019 90.716 55.7395 90.8662 55.4575C90.9759 55.2562 91.0828 55.0551 91.1839 54.8539C91.389 54.4646 91.5853 54.0728 91.779 53.6782C92.0476 53.6887 92.3134 53.7045 92.5761 53.72C93.59 53.7855 94.5808 53.8925 95.5515 54.0414C96.3863 54.1695 97.1662 54.3445 97.8884 54.5666C98.1137 54.637 98.3332 54.7102 98.544 54.7887C98.6539 54.8278 98.7609 54.8671 98.8647 54.9088C98.9197 54.9481 98.9802 54.9845 99.0495 55.0106C99.1507 55.0551 99.2662 55.0863 99.3992 55.1046C99.6245 55.1674 99.8238 55.1151 100 54.9481C100 54.9323 99.9971 54.914 99.9914 54.8983ZM72.5147 71.2053H71.0271C71.4951 70.863 71.7434 70.6828 72.0033 70.5025C71.9399 70.4738 71.8733 70.4449 71.81 70.4163C70.767 70.7194 69.6925 70.8971 68.5862 70.9492C68.4908 70.9571 68.3925 70.9598 68.2973 70.9623C68.1904 70.9675 68.0806 70.9701 67.9737 70.9701C67.8784 70.9701 67.786 70.9701 67.6935 70.9675C67.1417 70.9623 66.6363 70.9179 66.18 70.8344C66.1597 70.8315 66.1366 70.829 66.1163 70.8212C65.5097 70.7088 64.9869 70.5259 64.5478 70.2752C64.4553 70.2256 64.3717 70.1732 64.2878 70.1158C64.2821 70.3536 64.2792 70.5939 64.2705 70.8315C64.3717 70.8813 64.4727 70.9309 64.5594 70.9806V71.0406C64.6316 71.0746 64.7008 71.106 64.7761 71.1373C65.449 71.4195 66.1945 71.6232 67.0177 71.7538C67.0986 71.7668 67.1794 71.7775 67.2574 71.7903C67.5924 71.84 67.9218 71.8793 68.2483 71.9106C68.9096 71.9759 69.5568 72.0047 70.1894 71.9994C70.2615 71.9969 70.3338 71.9969 70.4059 71.9916C71.2033 71.9655 71.9803 71.8819 72.7428 71.746C72.6157 71.6232 72.4857 71.4952 72.353 71.3672C72.4049 71.315 72.4597 71.2601 72.5147 71.2053ZM83.1477 65.6433C82.671 64.7734 81.5186 65.4395 80.8571 64.9249C81.3105 64.87 81.7005 64.8231 82.1107 64.7734C82.3157 64.2823 81.8333 63.522 82.8934 63.347C82.6335 63.2686 82.3679 63.1929 82.0587 63.1014C82.0875 63.0492 82.1107 62.9994 82.1396 62.9499H82.1309C81.3596 63.872 80.5565 64.7394 79.716 65.5518C79.0748 66.171 78.4131 66.7431 77.7286 67.2708C77.665 67.3204 77.6015 67.3702 77.5351 67.4172C77.4658 67.4721 77.3964 67.5242 77.3271 67.5739C76.7379 68.0077 76.1341 68.4074 75.5131 68.7729C75.2705 68.9167 75.0249 69.0551 74.7764 69.1885C74.606 69.2798 74.4328 69.3713 74.2593 69.4575C74.0514 69.562 73.8406 69.6613 73.6296 69.7553C73.91 70.1656 74.1843 70.5757 74.4762 70.9806C74.5483 71.0771 74.6176 71.1764 74.6898 71.2732C75.4929 71.025 76.2758 70.7088 77.0383 70.3301C78.2139 69.7448 79.3404 69.0657 80.418 68.2871C81.0679 67.8195 81.7005 67.3127 82.3157 66.7692C82.5209 66.5917 82.726 66.4089 82.9253 66.2206C83.0005 66.1527 83.0726 66.0823 83.1449 66.0116C82.9745 66.0406 82.7954 66.0692 82.6046 66.1005C82.8243 66.0143 83.0321 65.9333 83.24 65.8549C83.2113 65.7767 83.1824 65.706 83.1477 65.6433ZM83.8989 60.6535C83.7197 60.9069 83.5378 61.1551 83.3528 61.4007C83.6966 61.3092 84.0577 61.21 84.4765 61.0951C84.2512 60.9227 84.0663 60.779 83.8989 60.6535Z" fill="#1A535C"/>
</svg>
